PathFileType	4	(x/y/z)	S01_P20_T17
DataRate	CameraRate	NumFrames	NumMarkers	Units	OrigDataRate	OrigDataStartFrame	OrigNumFrames
240	240	4	51	mm	240	53	418
Frame#	Time	Sternum			R.Acromium			L.Acromium			Top.Head			R.ASIS			L.ASIS			R.PSIS			L.PSIS			R.Great.Tro			L.Great.Tro			R.Iliac.Crest			L.Iliac.Crest			V.Sacral			R.Thigh.Upper.Post			R.Thigh.Lower.Ant			R.Thigh.Lower.Post			R.Thigh.Upper.Ant			R.Knee.Lat			R.Knee.Med			R.Shank.Upper.Post			R.Shank.Lower.Ant			R.Shank.Lower.Post			R.Shank.Upper.Ant			R.Ankle.Lat			R.Ankle.Med			R.Heel.Upper			R.Heel.Med			R.Heel.Lat			R.Toe.Lat			R.Toe.Med			R.Toe.Tip			L.Thigh.Upper.Post			L.Thigh.Lower.Ant			L.Thigh.Lower.Post			L.Thigh.Upper.Ant			L.Knee.Lat			L.Knee.Med			L.Shank.Upper.Post			L.Shank.Lower.Ant			L.Shank.Lower.Post			L.Shank.Upper.Ant			L.Ankle.Lat			L.Ankle.Med			L.Heel.Upper			L.Heel.Med			L.Heel.Lat			L.Toe.Lat			L.Toe.Med			L.Toe.Tip			Cervical.Spine			Back			
		X1	Y1	Z1	X2	Y2	Z2	X3	Y3	Z3	X4	Y4	Z4	X5	Y5	Z5	X6	Y6	Z6	X7	Y7	Z7	X8	Y8	Z8	X9	Y9	Z9	X10	Y10	Z10	X11	Y11	Z11	X12	Y12	Z12	X13	Y13	Z13	X14	Y14	Z14	X15	Y15	Z15	X16	Y16	Z16	X17	Y17	Z17	X18	Y18	Z18	X19	Y19	Z19	X20	Y20	Z20	X21	Y21	Z21	X22	Y22	Z22	X23	Y23	Z23	X24	Y24	Z24	X25	Y25	Z25	X26	Y26	Z26	X27	Y27	Z27	X28	Y28	Z28	X29	Y29	Z29	X30	Y30	Z30	X31	Y31	Z31	X32	Y32	Z32	X33	Y33	Z33	X34	Y34	Z34	X35	Y35	Z35	X36	Y36	Z36	X37	Y37	Z37	X38	Y38	Z38	X39	Y39	Z39	X40	Y40	Z40	X41	Y41	Z41	X42	Y42	Z42	X43	Y43	Z43	X44	Y44	Z44	X45	Y45	Z45	X46	Y46	Z46	X47	Y47	Z47	X48	Y48	Z48	X49	Y49	Z49	X50	Y50	Z50	X51	Y51	Z51	

53	0.21667	-963.6	1273.2	265.06	-1062.8	1534	437.07	-1085.7	1545.9	109.44	-1083.8	1857.1	267.25	-1017.5	1030.9	425.45	-1013.5	1026.3	162.03	-1259.1	1079.1	326.65	-1261	1078.3	222.77	-1107.8	979.3	507.12	-1115.5	980.02	80.766	-1110.8	1130.5	488.75	-1119.5	1109.2	82.284	-1272.7	1042.2	272.71	-1075.6	673.93	505.2	-992.28	611.64	502.69	-1057.9	586.22	492.69	-1007.5	701.09	511.04	-1036.8	527.07	494.33	-1001.4	520.02	350.29	-1182.9	459.1	490.62	-1203.8	356.08	453.65	-1236.5	415.93	473.54	-1149	403.76	476.16	-1385.8	290.47	420.88	-1331.2	263.24	335.53	-1437.5	319.18	346.17	-1445.3	288.09	316.67	-1466.6	299.74	376.93	-1387.1	144.09	472.4	-1337.1	108.73	362.52	-1297.4	79.806	436.13	-1114.2	691.91	107.71	-1020.1	630.92	105.3	-1092.4	604.39	126.68	-1052.5	720.33	85.515	-1031.3	526.13	119.01	-1003.7	533.68	256.71	-1095	393.59	102.18	-1042.1	298.72	127.24	-1100.7	314.48	106.61	-1033.4	374.85	118.24	-1144.6	107.19	145.03	-1114.2	117.02	241.14	-1212.6	73.759	192.41	-1202.3	49.083	225.12	-1206.4	48.404	163.07	-998.57	39.772	120.27	-968.16	44.029	242.01	-908.41	57.715	188.5	-1163.8	1601.7	280.54	-1272	1287.6	299.84
54	0.22083	-958.16	1274.2	265.38	-1057.8	1535.1	436.88	-1079.7	1546.8	109.17	-1078.1	1858.1	266.61	-1013.1	1032	426.11	-1008.2	1026.9	162.15	-1254	1080.3	326.5	-1255.8	1079.4	222.62	-1102.5	980.86	507.32	-1110.4	980.66	80.88	-1105.9	1131.8	488.81	-1113.6	1110	82.275	-1267.6	1043.4	272.59	-1066.8	675.67	505.3	-982.77	614.24	502.66	-1048.1	588.16	492.72	-998.98	703.55	511.1	-1026.6	529.32	494.39	-991.1	522.63	350.21	-1172.2	460.57	490.06	-1192.2	357.37	453.26	-1225.6	416.99	472.98	-1137.8	405.41	475.92	-1373.7	290.34	420.15	-1317.6	263.96	334.63	-1425.8	318.44	345.42	-1433.3	287.2	315.9	-1454.5	298.63	376.27	-1372.9	144.17	471.9	-1322.7	109.35	361.96	-1283.7	80.01	434.69	-1111.6	692.7	107.85	-1018	630.98	105.37	-1090.6	605.02	126.75	-1049.7	720.62	85.638	-1030.1	526.19	119.03	-1002.3	533.46	256.75	-1094.5	393.76	102.25	-1041.8	298.73	127.18	-1100.2	314.55	106.63	-1032.9	374.89	118.2	-1144.5	107.36	145.08	-1114.1	117.15	241.18	-1212.5	73.95	192.47	-1202.2	49.258	225.16	-1206.3	48.605	163.12	-998.54	39.753	120.25	-968.11	44.014	241.99	-908.36	57.623	188.47	-1158.3	1602.7	280.04	-1266.8	1288.7	299.29
55	0.225	-952.74	1275.2	265.69	-1052.8	1536.2	436.71	-1073.7	1547.6	108.92	-1072.4	1859	266.02	-1008.7	1033	426.71	-1002.9	1027.6	162.28	-1248.8	1081.6	326.39	-1250.6	1080.5	222.5	-1097.2	982.43	507.52	-1105.3	981.3	81.005	-1101	1133.1	488.84	-1107.8	1110.9	82.284	-1262.4	1044.6	272.52	-1058	677.44	505.4	-973.33	616.85	502.56	-1038.4	590.13	492.75	-990.52	706.03	511.13	-1016.4	531.57	494.41	-980.87	525.27	350.1	-1161.6	461.88	489.52	-1180.3	358.52	452.85	-1214.6	417.85	472.45	-1126.7	406.95	475.68	-1361.5	289.84	419.47	-1304	264.37	333.76	-1414.1	317.33	344.78	-1421.2	285.96	315.2	-1442.2	297.08	375.7	-1358.5	143.87	471.33	-1308.1	109.77	361.29	-1269.3	80.189	433.19	-1109	693.5	108	-1016	631.05	105.45	-1088.7	605.67	126.83	-1046.9	720.9	85.765	-1029	526.26	119.04	-1000.9	533.25	256.79	-1094	393.95	102.32	-1041.5	298.77	127.12	-1099.8	314.66	106.66	-1032.4	374.96	118.17	-1144.4	107.55	145.13	-1113.9	117.3	241.21	-1212.4	74.153	192.54	-1202.2	49.445	225.22	-1206.2	48.817	163.17	-998.52	39.733	120.24	-968.05	43.999	241.97	-908.32	57.529	188.45	-1152.8	1603.6	279.56	-1261.6	1289.8	298.74
56	0.22917	-947.33	1276.3	266	-1047.7	1537.3	436.56	-1067.8	1548.5	108.69	-1066.7	1859.9	265.49	-1004.3	1034.1	427.25	-997.58	1028.3	162.39	-1243.6	1082.8	326.3	-1245.3	1081.6	222.42	-1091.8	983.99	507.72	-1100.2	981.93	81.141	-1096.1	1134.5	488.84	-1102	1111.8	82.309	-1257.2	1045.7	272.48	-1049.3	679.21	505.5	-963.97	619.46	502.41	-1028.7	592.12	492.77	-982.12	708.5	511.12	-1006.4	533.83	494.38	-970.76	527.94	349.96	-1150.9	463.03	489.01	-1168.4	359.51	452.44	-1203.6	418.51	471.94	-1115.4	408.38	475.42	-1349.1	289	418.83	-1290.5	264.44	332.95	-1402.2	315.86	344.23	-1408.9	284.37	314.57	-1429.8	295.11	375.21	-1343.8	143.23	470.69	-1293.1	110	360.51	-1254.3	80.335	431.64	-1106.5	694.3	108.16	-1014	631.12	105.52	-1087	606.33	126.92	-1044.1	721.19	85.896	-1028	526.35	119.05	-999.58	533.06	256.84	-1093.5	394.14	102.39	-1041.3	298.83	127.07	-1099.4	314.79	106.69	-1032	375.04	118.13	-1144.3	107.74	145.18	-1113.7	117.45	241.24	-1212.3	74.367	192.61	-1202.1	49.642	225.27	-1206.2	49.04	163.23	-998.49	39.713	120.22	-968	43.983	241.95	-908.27	57.432	188.42	-1147.3	1604.6	279.11	-1256.4	1290.9	298.19
